<svg width="36" height="24" viewBox="0 0 36 24" fill="none" xmlns="http://www.w3.org/2000/svg">
<g id="Group">
<path id="Vector" d="M0 0H36V24H0V0Z" fill="#479951"/>
<path id="Vector_2" fill-rule="evenodd" clip-rule="evenodd" d="M15.6013 5.68788C15.5826 5.68736 15.5546 5.69776 15.5154 5.72104C15.4273 5.78012 15.2526 5.96208 15.2473 6.17144C15.242 6.28952 15.2197 6.28904 15.297 6.36424C15.3529 6.44476 15.4087 6.43685 15.5214 6.37777C15.5862 6.33005 15.6081 6.29964 15.6299 6.2196C15.6567 6.08544 15.4887 6.28308 15.4672 6.13376C15.4297 5.99512 15.5369 5.93809 15.6389 5.80389C15.6413 5.74069 15.6424 5.68912 15.6013 5.68788ZM17.2431 5.69692C17.2116 5.70116 17.1731 5.74153 17.1195 5.83853C17.0812 5.94013 16.9159 6.09384 17.0352 6.41092C17.1328 6.61193 17.1729 6.93864 17.1286 7.3026C17.061 7.40604 17.0455 7.44168 16.9569 7.54513C16.8323 7.67904 16.6974 7.64481 16.5939 7.59481C16.4971 7.52961 16.4211 7.49617 16.377 7.28905C16.3849 6.95893 16.4042 6.4186 16.3438 6.30392C16.2549 6.12632 16.1083 6.19004 16.0456 6.24368C15.7445 6.51901 15.5957 6.98389 15.5049 7.35377C15.4213 7.62337 15.3323 7.54537 15.2699 7.43661C15.1177 7.29409 15.1071 6.1794 14.9235 6.36268C14.6293 7.20328 15.0922 8.12413 15.4129 8.03465C15.6443 8.13045 15.7912 7.68997 15.8859 7.20773C15.9507 7.07237 16.0003 7.05681 16.0335 7.12637C16.025 7.76773 16.0795 7.91077 16.2444 8.10541C16.6122 8.38921 16.9165 8.14141 16.9403 8.11749L17.2265 7.83129C17.2902 7.76425 17.3745 7.76016 17.4645 7.81924C17.552 7.89876 17.5407 8.03576 17.7281 8.13104C17.8857 8.19408 18.2224 8.14637 18.3005 8.01053C18.4055 7.83045 18.431 7.76853 18.4797 7.70025C18.5547 7.60041 18.6831 7.64461 18.6831 7.67613C18.6711 7.73181 18.5957 7.78672 18.6469 7.887C18.7361 7.95392 18.7568 7.91092 18.8096 7.89604C18.9962 7.80684 19.1364 7.402 19.1364 7.402C19.1447 7.251 19.0588 7.26244 19.0039 7.29356C18.9323 7.33732 18.9279 7.3522 18.8563 7.39596C18.7651 7.40956 18.5883 7.46973 18.5008 7.33421C18.4115 7.17133 18.4109 6.9442 18.3426 6.77992C18.3426 6.76796 18.2233 6.52157 18.3336 6.50577C18.3893 6.51617 18.509 6.54708 18.5279 6.44704C18.5863 6.34952 18.4019 6.07293 18.2763 5.93345C18.1674 5.81385 18.0169 5.79924 17.8711 5.92136C17.7691 6.01528 17.7843 6.12016 17.7642 6.2196C17.7382 6.33384 17.7432 6.47529 17.8591 6.62629C17.961 6.82717 18.1461 7.08493 18.0851 7.44869C18.0851 7.44869 17.9775 7.6218 17.7883 7.59932C17.7095 7.58212 17.581 7.54797 17.5127 7.04353C17.461 6.66165 17.5257 6.12664 17.3636 5.87616C17.327 5.78164 17.2956 5.68984 17.2431 5.69692ZM16.7235 5.73744C16.6745 5.74172 16.6201 5.7988 16.5759 5.90913C16.5379 5.99305 16.4915 6.43181 16.4991 6.43181C16.4687 6.56241 16.6355 6.61776 16.7114 6.44988C16.8253 6.14216 16.8258 6.01108 16.8334 5.88056C16.8157 5.78112 16.7725 5.73316 16.7235 5.73744ZM18.6424 5.77208C18.592 5.77664 18.5519 5.80608 18.537 5.88048C18.5169 6.05548 18.5271 6.1506 18.5566 6.29624C18.5791 6.39336 18.7205 6.55597 18.79 6.65025C19.1224 7.09701 19.4422 7.54592 19.751 8.01036C19.7989 8.34838 19.8346 8.68801 19.858 9.02861C19.908 9.76529 19.9232 10.6823 19.8776 11.4582C20.0156 11.4636 20.2367 11.2353 20.3144 10.9009C20.3649 10.4383 20.2964 9.49441 20.2918 9.22141C20.2885 9.10804 20.2815 8.97285 20.2737 8.83129C20.6504 9.44669 21.0006 10.0779 21.3235 10.7231C21.4483 10.6638 21.4206 9.96165 21.3476 9.86305C21.0738 9.27373 20.6955 8.69197 20.5749 8.46825C20.5314 8.38745 20.3831 8.16193 20.2074 7.90189C20.1751 7.53081 20.1399 7.21653 20.117 7.12161C20.0605 6.72936 20.2783 7.16585 20.2481 6.93785C20.1775 6.54613 19.9613 6.27993 19.7059 5.92113C19.6235 5.80445 19.6251 5.78064 19.498 5.94976C19.422 6.12216 19.423 6.26556 19.4453 6.40012C19.4034 6.33882 19.3586 6.2795 19.3112 6.22236C19.0907 6.03316 19.0771 6.0228 18.894 5.8684C18.8363 5.82744 18.7264 5.7644 18.6424 5.772V5.77208ZM24.33 5.8308C24.3055 5.827 24.2788 5.83905 24.2487 5.88353C24.1911 5.93397 24.1293 6.02528 24.1312 6.1426C24.1452 6.34932 24.182 6.561 24.196 6.76772C24.2009 6.79536 24.2061 6.82292 24.211 6.85056C24.1945 6.82911 24.1769 6.80849 24.1583 6.7888C23.7553 6.36552 24.3434 6.7196 24.0815 6.39268C23.8599 6.1494 23.7951 6.072 23.6055 5.92572C23.5104 5.86428 23.453 5.74685 23.4217 5.94681C23.4093 6.12249 23.3964 6.32592 23.4082 6.474C23.4075 6.55632 23.4927 6.71125 23.5663 6.80241C23.8351 7.13265 24.1097 7.484 24.3857 7.85072C24.4438 8.5986 24.4593 9.28416 24.5183 10.0333C24.5099 10.3537 24.4114 10.7792 24.3179 10.8195C24.3179 10.8195 24.1753 10.9015 24.0799 10.8105C24.0107 10.7826 23.7335 10.3481 23.7335 10.3481C23.5917 10.218 23.4971 10.2552 23.3961 10.3481C23.1177 10.6169 22.9919 11.1204 22.8027 11.4672C22.7539 11.5446 22.6165 11.6105 22.4638 11.4612C22.0759 10.9312 22.3027 10.1768 22.2544 10.3707C21.9089 10.76 22.0619 11.4053 22.1399 11.544C22.2538 11.772 22.346 11.9178 22.5677 12.0306C22.7696 12.1792 22.9269 12.0864 23.0136 11.9824C23.2167 11.7718 23.2195 11.2334 23.3148 11.1268C23.3817 10.9311 23.5494 10.9648 23.6311 11.0515C23.7103 11.1654 23.8039 11.2396 23.9203 11.3015C24.1099 11.4687 24.336 11.4991 24.559 11.3467C24.7113 11.2613 24.8102 11.1502 24.8994 10.931C24.9951 10.675 24.9478 9.33356 24.9265 8.58729C25.0696 8.78889 25.2109 8.99489 25.3513 9.20333C25.4129 9.85841 25.4408 10.5036 25.4205 11.1223C25.406 11.2453 25.8498 10.755 25.8468 10.5228C25.8448 10.3196 25.8472 10.1354 25.8468 9.96397C26.0621 10.3076 26.2704 10.657 26.4674 11.0108C26.5895 10.9461 26.5476 10.2551 26.4704 10.1598C26.2642 9.81377 26.0001 9.43985 25.7956 9.15057C25.7552 8.78544 25.7001 8.35469 25.6751 8.22273C25.6361 8.01693 25.597 7.70781 25.538 7.46353C25.5219 7.36821 25.473 7.06357 25.4883 7.03429C25.5124 6.96613 25.6033 7.03645 25.648 6.95749C25.715 6.88445 25.4158 6.10925 25.2639 5.88801C25.2093 5.7888 25.1105 5.82316 24.9883 5.9844C24.8749 6.09048 24.9163 6.33256 24.9596 6.5628C25.0721 7.1496 25.1724 7.7472 25.2519 8.3432C25.0858 8.09609 24.9181 7.85008 24.7487 7.6052C24.744 7.58056 24.7261 7.49041 24.7261 7.48921C24.7261 7.47865 24.7018 7.00921 24.6809 6.89725C24.6773 6.85181 24.6665 6.83876 24.7141 6.84452C24.7646 6.887 24.7714 6.88928 24.803 6.90328C24.8539 6.9126 24.8985 6.82644 24.8677 6.7466C24.7101 6.45584 24.5524 6.16381 24.3948 5.87301C24.3758 5.85432 24.3546 5.8346 24.33 5.8308ZM9.65165 5.84588C9.56429 5.84336 9.46793 5.89752 9.50553 6.00252C9.48365 6.05972 9.67653 6.2532 9.71041 6.35952C9.74077 6.4352 9.68029 6.67892 9.74353 6.70144C9.80169 6.72664 9.88177 6.53272 9.91225 6.35348C9.92909 6.25528 9.91633 5.91928 9.68781 5.85036C9.67593 5.84769 9.66382 5.84621 9.65165 5.84588ZM26.3727 5.8478C26.3528 5.8498 26.3286 5.88197 26.2914 5.96077C26.202 6.10721 26.1712 6.3694 26.207 6.60092C26.4222 8.05673 26.5822 9.46637 26.6152 10.7567C26.5967 10.8792 26.5913 10.9443 26.5339 11.0986C26.4069 11.2614 26.2667 11.4656 26.1347 11.564C26.0028 11.6624 25.7219 11.7562 25.6301 11.8291C25.3388 11.9975 25.3373 12.1912 25.5729 12.1982C25.9788 12.151 26.4591 12.1178 26.7899 11.6182C26.8785 11.4783 26.9827 11.0988 26.9873 10.8666C27.0182 9.50512 26.9699 8.17389 26.7659 7.18989C26.7528 7.09405 26.7105 6.87372 26.7267 6.84496C26.753 6.77756 26.8858 6.85172 26.9331 6.77416C27.0024 6.70336 26.5896 6.17476 26.445 5.94872C26.4161 5.89196 26.3983 5.84528 26.3727 5.8478ZM22.1161 5.8704C22.0993 5.87328 22.0746 5.8988 22.0287 5.95928C21.9153 6.33 21.8755 6.63277 21.9187 6.86301C22.21 8.38297 22.5085 9.76768 22.461 11.2146C22.5991 11.2155 22.7588 10.8986 22.827 10.585C22.8644 10.1529 22.8021 9.88997 22.7909 9.63601C22.7797 9.38209 22.5034 7.32172 22.4475 7.1296C22.3799 6.76632 22.7161 7.08185 22.6795 6.87053C22.5632 6.60417 22.2732 6.21628 22.1824 5.98488C22.1483 5.92288 22.1441 5.86556 22.1161 5.8704ZM11.7516 5.899C11.7159 5.9052 11.6813 5.93472 11.6688 5.9834C11.6609 6.01524 11.6826 6.06824 11.6537 6.08428C11.6372 6.101 11.5743 6.08976 11.5769 6.00144C11.5769 5.97332 11.5563 5.94397 11.5437 5.92613C11.5312 5.91793 11.5228 5.91561 11.5001 5.91561C11.4725 5.91673 11.4731 5.924 11.4579 5.9472C11.4512 5.9708 11.4425 5.994 11.4425 6.02096C11.439 6.0524 11.4265 6.06304 11.4033 6.06764C11.3775 6.06764 11.3836 6.07044 11.3627 6.05712C11.3503 6.04352 11.3355 6.03816 11.3355 6.01492C11.3355 5.99092 11.3292 5.95252 11.322 5.9366C11.311 5.92212 11.2937 5.91461 11.2738 5.90949C11.1655 5.90989 11.1576 6.03433 11.1638 6.08121C11.1557 6.09005 11.1517 6.3106 11.2994 6.37192C11.4977 6.46644 11.8695 6.42649 11.8537 6.10681C11.8537 6.07857 11.8475 5.9836 11.8447 5.95768C11.8244 5.91056 11.7871 5.89277 11.7513 5.89897L11.7516 5.899ZM14.4117 5.90204C14.3432 5.90552 14.2827 5.92517 14.2309 5.95173C14.0995 6.07757 14.0687 6.27932 14.1722 6.40512C14.2729 6.45268 14.3734 6.55404 14.3062 6.60996C14.0215 6.91416 13.2802 7.42248 13.2429 7.5152C13.2426 7.516 13.2415 7.51752 13.2414 7.5182C13.2413 7.51888 13.2414 7.5206 13.2414 7.52124C13.2414 7.52152 13.2413 7.52245 13.2414 7.52272C13.2417 7.52379 13.2422 7.52482 13.2429 7.52577L13.2444 7.52725C13.2446 7.52741 13.2456 7.52713 13.2459 7.52725C13.2462 7.52741 13.2471 7.52865 13.2474 7.52877C13.2477 7.52885 13.2485 7.52865 13.2489 7.52877L13.2504 7.53025C13.2881 7.55553 13.7519 7.55492 13.8032 7.53176C13.8036 7.53156 13.8044 7.53045 13.8047 7.53025C13.8049 7.53017 13.8061 7.53037 13.8062 7.53025C13.8063 7.53017 13.8061 7.52885 13.8062 7.52877C13.9656 7.47001 14.722 6.60544 14.722 6.60544C14.6828 6.57184 14.6467 6.54712 14.6075 6.51356C14.5655 6.4772 14.5698 6.44148 14.6075 6.40512C14.7949 6.29608 14.7355 6.05624 14.6377 5.9472C14.5565 5.91084 14.4802 5.89852 14.4117 5.902V5.90204ZM21.3645 5.90504C21.3446 5.90704 21.3204 5.93768 21.2832 6.01652C21.1938 6.16292 21.1331 6.41793 21.1401 6.65665C21.3338 7.99729 21.3931 9.17049 21.5197 10.5112C21.53 10.6408 21.511 10.8292 21.4248 10.9043C21.106 11.2372 20.6463 11.6477 20.146 11.8367C20.0922 11.8971 20.2799 12.1547 20.5226 12.1545C20.9285 12.1074 21.2852 11.8796 21.6161 11.2794C21.7046 11.1394 21.8601 10.8398 21.8647 10.6076C21.8956 9.24605 21.796 8.18749 21.592 7.20345C21.5789 7.10757 21.5879 6.99424 21.6041 6.96544C21.6303 6.93404 21.7195 6.96616 21.7667 6.88864C21.8361 6.8178 21.5815 6.23044 21.4369 6.00444C21.408 5.94768 21.3901 5.90248 21.3645 5.90504ZM10.5933 5.946C10.5373 5.95256 10.4846 5.99816 10.4593 6.059C10.4499 6.274 10.4486 6.48892 10.4728 6.68708C10.5706 7.03464 10.6016 7.34033 10.649 7.69629C10.6622 8.17305 10.3737 7.90252 10.3869 7.66616C10.4535 7.35916 10.4356 6.87589 10.3764 6.75337C10.3295 6.63089 10.2751 6.60064 10.161 6.6208C10.0704 6.61528 9.83629 6.87032 9.77085 7.2926C9.77085 7.2926 9.71633 7.50937 9.69253 7.70233C9.66053 7.92041 9.51605 8.07485 9.41541 7.67221C9.32837 7.37953 9.27489 6.65844 9.12921 6.8272C9.08749 7.3902 9.03793 8.38093 9.51633 8.48257C10.095 8.53821 9.77533 7.50441 9.98473 7.31673C10.0243 7.22397 10.0977 7.22232 10.1038 7.33932V8.21749C10.0985 8.50293 10.2863 8.58776 10.4321 8.64676C10.5839 8.63505 10.6845 8.63916 10.7439 8.78684C10.7676 9.293 10.7925 9.80044 10.8162 10.3066C10.8162 10.3066 11.167 10.4074 11.1837 9.45257C11.2005 8.89189 11.0721 8.42141 11.1476 8.31233C11.1503 8.20517 11.2877 8.19988 11.3826 8.25208C11.5338 8.35876 11.6009 8.49008 11.8359 8.43737C12.1936 8.33885 12.4091 8.16525 12.4143 7.89056C12.3935 7.62961 12.3633 7.36832 12.2502 7.10736C12.266 7.05988 12.1817 6.93641 12.1975 6.88897C12.2617 6.98961 12.359 6.98125 12.3812 6.88897C12.3203 6.68833 12.2256 6.49616 12.0724 6.41296C11.9459 6.30144 11.7607 6.32504 11.6929 6.55756C11.6614 6.82548 11.79 7.14305 11.9851 7.40257C12.0265 7.50393 12.0845 7.67257 12.0589 7.82429C11.9551 7.88353 11.8521 7.85888 11.7651 7.76708C11.7651 7.76708 11.4805 7.55396 11.4805 7.50648C11.556 7.0228 11.4967 6.9674 11.4549 6.83316C11.4257 6.64788 11.3378 6.58916 11.2666 6.46264C11.1954 6.38716 11.0987 6.38716 11.0527 6.46264C10.9269 6.68076 10.9859 7.14913 11.0768 7.35889C11.1425 7.55181 11.2432 7.67216 11.1958 7.67216C11.1567 7.7812 11.0753 7.75585 11.0166 7.63001C10.9327 7.36993 10.9156 6.98232 10.9156 6.8076C10.8905 6.59096 10.8624 6.12824 10.7198 6.0108C10.6818 5.959 10.6369 5.94096 10.5933 5.946ZM12.6252 5.94905C12.5965 5.95265 12.5647 5.969 12.5273 5.97764C12.4043 6.0168 12.2891 6.12316 12.3255 6.33012C12.4709 7.21372 12.5657 7.88809 12.7111 8.77173C12.7335 8.87521 12.6467 9.0116 12.5349 8.99768C12.3447 8.869 12.2975 8.60848 11.973 8.61961C11.7381 8.62241 11.4702 8.87801 11.4368 9.12421C11.3976 9.31985 11.3837 9.53197 11.4368 9.7026C11.6019 9.90112 11.7996 9.87993 11.973 9.83517C12.1156 9.77645 12.2329 9.63597 12.2833 9.66945C12.2835 9.66961 12.2847 9.66929 12.2848 9.66945C12.285 9.66965 12.2847 9.67076 12.2848 9.67096C12.3159 9.72533 12.2819 10.1849 11.613 10.54C11.2019 10.7246 10.8748 10.7687 10.6987 10.4331C10.5896 10.2234 10.7066 9.42457 10.4381 9.60921C9.64401 11.6561 12.2985 11.9418 12.5951 9.69353C12.6143 9.63013 12.6728 9.56648 12.7141 9.58208C12.7322 9.5898 12.7488 9.61441 12.7547 9.66041C12.6932 11.6961 10.7011 11.8356 10.3628 11.1953C10.2789 11.0443 10.2537 10.7083 10.2453 10.5069C10.23 10.3851 10.1994 10.3148 10.164 10.287C10.0833 10.2264 9.97477 10.3845 9.95157 10.6591C9.91801 10.88 9.92749 10.9406 9.92749 11.1531C10.0337 12.761 12.5972 12.0702 13.0138 10.7419C13.22 10.0552 13.0096 9.53725 13.0786 9.47369C13.0792 9.47317 13.081 9.4726 13.0816 9.47216C13.0823 9.47176 13.0839 9.47101 13.0846 9.47069C13.0853 9.47037 13.0869 9.4694 13.0876 9.46917C13.0899 9.46852 13.0939 9.46769 13.0967 9.46765C13.3511 9.74177 13.7082 9.50249 13.7865 9.40741C13.8201 9.35985 13.904 9.32933 13.9627 9.39085C14.1612 9.53353 14.5091 9.46628 14.5818 9.21461C14.6238 8.96852 14.6593 8.71521 14.6677 8.45249C14.5383 8.49261 14.434 8.52269 14.392 8.56697C14.382 8.57789 14.3746 8.59001 14.3724 8.60309C14.3612 8.67585 14.3505 8.74876 14.3393 8.82148C14.3381 8.82748 14.3361 8.83309 14.3333 8.83809C14.3271 8.84743 14.3189 8.85518 14.3091 8.86069C14.2635 8.88561 14.1837 8.87136 14.1796 8.80492C14.1181 8.52532 13.865 8.48893 13.7112 8.92241C13.6077 9.00629 13.419 9.02265 13.3994 8.89681C13.4246 8.60601 13.3074 8.56697 13.0725 8.70401C12.997 8.12801 12.9221 7.578 12.8466 7.002C12.9445 6.99916 13.0343 7.07012 13.1237 6.95828C13.0269 6.65708 12.822 6.04428 12.7065 5.98676C12.7056 5.98636 12.7044 5.9856 12.7035 5.98528C12.6963 5.9769 12.6882 5.96933 12.6794 5.96268C12.6773 5.9612 12.674 5.95936 12.6719 5.95816C12.667 5.95568 12.662 5.95367 12.6568 5.95216C12.6466 5.94898 12.6358 5.94795 12.6252 5.94912L12.6252 5.94905ZM20.5464 5.95356C20.4448 5.95052 20.3324 6.01457 20.3762 6.14181C20.3507 6.21125 20.5944 6.44673 20.6338 6.57561C20.7045 6.77365 20.5798 6.96252 20.6534 6.98984C20.7211 7.0204 20.8153 6.78541 20.8506 6.56809C20.8915 6.3924 20.7662 6.0324 20.5886 5.95808C20.5747 5.95516 20.5606 5.95365 20.5464 5.95356ZM14.3753 6.17044C14.4216 6.16572 14.4775 6.20825 14.5049 6.26837C14.5341 6.33249 14.5195 6.39372 14.4717 6.4054C14.4241 6.41708 14.3624 6.37465 14.3332 6.31053C14.304 6.24641 14.3186 6.18364 14.3663 6.17196C14.3693 6.1712 14.3723 6.17076 14.3753 6.17044ZM25.8229 6.46716C25.7302 6.46396 25.6293 6.53424 25.6692 6.672C25.646 6.7472 25.8669 7.00244 25.9027 7.142C25.9349 7.24128 25.8537 7.56128 25.9208 7.5908C25.9825 7.62392 26.0693 7.36972 26.1015 7.1344C26.1194 7.00564 26.0239 6.55368 25.862 6.4732C25.8492 6.46967 25.8361 6.46764 25.8229 6.46716ZM19.4937 6.6238C19.5022 6.6616 19.5107 6.6996 19.5163 6.73828C19.5353 6.82176 19.5517 6.90468 19.569 6.98684C19.4959 6.88616 19.4354 6.80484 19.4094 6.77596C19.2439 6.57936 19.4131 6.64684 19.4937 6.6238ZM20.9518 7.3408C20.916 7.347 20.8814 7.37801 20.8689 7.42665C20.861 7.45853 20.8842 7.51005 20.8554 7.52609C20.8388 7.54277 20.7744 7.53305 20.777 7.44473C20.777 7.41661 20.7564 7.38573 20.7439 7.36793C20.7314 7.35969 20.7229 7.35736 20.7002 7.35736C20.6726 7.35848 20.6732 7.36577 20.6581 7.38897C20.6517 7.41265 20.643 7.43596 20.643 7.46281C20.6395 7.49425 20.6285 7.50489 20.6053 7.50949C20.5795 7.50949 20.5841 7.51229 20.5631 7.49897C20.5507 7.48537 20.536 7.48 20.536 7.45676C20.536 7.43272 20.5297 7.39437 20.5225 7.37845C20.5115 7.36397 20.4941 7.35793 20.4743 7.35285C20.366 7.35325 20.3596 7.47616 20.3658 7.52304C20.3577 7.53188 20.3522 7.75397 20.4999 7.81525C20.6981 7.90981 21.0715 7.86832 21.0557 7.54864C21.0557 7.52036 21.0479 7.42544 21.0451 7.39952C21.0249 7.3524 20.9876 7.3346 20.9518 7.3408ZM14.2944 7.40708C14.2699 7.40456 14.2379 7.41357 14.201 7.43569C14.0257 7.53053 13.9578 7.81184 14.0669 7.97648C14.1689 8.1214 14.3301 8.06833 14.3516 8.06833C14.5234 8.08981 14.6257 7.74601 14.6257 7.74601C14.6257 7.74601 14.6309 7.64932 14.4269 7.83185C14.3411 7.84792 14.3294 7.81692 14.3079 7.76856C14.2901 7.67912 14.2939 7.58845 14.3351 7.49897C14.3541 7.44533 14.3351 7.41124 14.2944 7.40708ZM23.7054 7.45077C23.6081 7.44601 23.5045 7.50905 23.478 7.64205C23.4784 7.72053 23.5134 7.76364 23.5066 7.83484C23.4965 7.87556 23.4545 7.90233 23.3545 7.85444C23.3701 7.84004 23.2897 7.7264 23.2897 7.7264C23.2117 7.67888 23.1075 7.72897 23.0397 7.77309C23.0023 7.84093 22.9747 7.95716 23.0171 8.07588C23.1291 8.28276 23.5132 8.63585 23.6964 8.63921C23.6998 8.45265 23.7179 8.20457 23.728 8.05025C23.7323 7.99201 23.746 7.92784 23.8018 7.9132C23.8576 7.8986 23.9544 7.96929 23.9555 7.90869C23.9453 7.78997 23.9216 7.61485 23.8545 7.53213C23.8202 7.48121 23.7638 7.45361 23.7054 7.45077ZM15.9153 8.09997C15.9127 8.10092 15.9102 8.10313 15.9078 8.10449C15.9066 8.10521 15.9045 8.10665 15.9033 8.10749C15.8839 8.12205 15.861 8.15564 15.8099 8.19184C15.7237 8.28992 15.7082 8.35824 15.7135 8.55484C15.7184 8.57564 15.8772 9.01716 16.0117 9.32752C16.1025 9.65013 16.1864 10.0195 16.1247 10.3684C15.9123 10.8296 15.4855 11.2432 15.0734 11.4679C14.8634 11.5351 14.6821 11.5122 14.6335 11.4664L14.6321 11.4649C14.5115 11.3838 14.5087 11.2395 14.5161 11.2149V11.2134L14.5176 11.2118C14.8653 10.9697 15.2625 10.7736 15.5735 10.1198C15.6653 9.86997 15.6933 9.71997 15.6021 9.33361C15.5665 9.18961 15.5226 9.0712 15.4243 8.96908L15.4258 8.96757C15.485 8.93925 15.6386 9.05237 15.6623 8.98117C15.626 8.79668 15.501 8.54901 15.3595 8.42233C15.2357 8.30981 15.1009 8.29677 14.9875 8.39973C14.8598 8.47081 14.8326 8.72605 14.8941 8.94949C14.9624 9.11769 15.1469 9.14717 15.2782 9.48573V9.48721C15.2809 9.50841 15.3233 9.73988 15.2571 9.83364C15.2034 10.0011 14.5137 10.545 14.4648 10.5778C14.4643 10.5783 14.4608 10.5802 14.4603 10.5808L14.4588 10.5823C14.4587 10.5824 14.4576 10.5835 14.4573 10.5838L14.4558 10.5853H14.4528C14.4523 10.5848 14.4518 10.5843 14.4513 10.5838V10.5823C14.451 10.5818 14.4501 10.5798 14.4498 10.5792C14.4477 10.5656 14.4514 10.5311 14.4498 10.4753C14.4453 10.3734 14.4874 10.1428 14.4844 10.1033V10.1018L14.4829 10.1003V10.0988H14.4814C14.2534 10.246 14.1781 10.6972 14.1365 10.8308C13.5593 11.2296 12.9038 11.5264 12.5263 11.9304C12.3297 12.2374 13.8809 11.5778 14.0612 11.4981C14.0628 11.4992 14.0643 11.5011 14.0657 11.5026C14.1 11.5403 14.1029 11.6718 14.2058 11.7903C14.367 12.0087 14.7098 12.1432 15.0433 12.0599C15.6025 11.8578 15.9247 11.4766 16.2528 11.0537C16.2997 10.9855 16.3732 10.9318 16.4411 10.9844C16.6665 11.4891 17.3164 11.8482 18.1567 11.8852C18.3511 11.6488 18.2581 11.5325 18.1793 11.483C18.155 11.4669 17.7614 11.3134 17.7003 11.1607C17.6618 11.0186 17.7554 10.8925 17.9428 10.7977C18.4823 10.7325 19.0127 10.66 19.5259 10.495C19.5311 10.3225 19.6327 10.0647 19.7006 9.95268C19.7478 9.875 19.7781 9.86733 19.7895 9.85629C19.7899 9.85589 19.7907 9.85521 19.791 9.85481C19.7911 9.85461 19.7924 9.85349 19.7925 9.85328L19.794 9.85181V9.84877C19.7943 9.84537 19.794 9.83949 19.7925 9.83372L19.7051 9.78253L17.9835 9.77497C17.9622 9.76677 17.9464 9.75856 17.9368 9.75089C17.9361 9.75025 17.9344 9.74849 17.9338 9.74785L17.9323 9.74637C17.932 9.74605 17.931 9.74516 17.9308 9.74484L17.9293 9.74185L17.9278 9.74033V9.73885L17.9263 9.73733V9.72529L17.9278 9.7238C17.9282 9.723 17.9287 9.72157 17.9293 9.72077C17.9377 9.70945 17.9581 9.69876 17.9835 9.68917C18.3946 9.63317 19.125 9.51341 19.1735 8.81101C19.1659 8.44513 19.0169 8.20556 18.568 8.13916C18.2381 8.16469 18.0028 8.48377 18.0408 8.83509C18.025 8.92969 18.0728 9.11528 17.976 9.13633C17.3432 9.19416 16.6525 9.59065 16.6294 9.87437H16.6279C16.6276 9.87469 16.6267 9.87561 16.6264 9.87589L16.6233 9.87737H16.6203C16.6193 9.87773 16.6169 9.87861 16.6158 9.87889H16.6113C16.6098 9.87893 16.6083 9.87893 16.6068 9.87889C16.6052 9.87857 16.6022 9.87773 16.6008 9.87737C16.5596 9.86596 16.5066 9.79805 16.5149 9.70265C16.4908 9.21213 16.3312 8.65705 16.0811 8.22957C15.9919 8.14037 15.953 8.10421 15.9275 8.10004C15.9267 8.09993 15.9253 8.10004 15.9245 8.10004H15.9154L15.9153 8.09997ZM17.5632 8.35905C17.5274 8.36525 17.4929 8.39473 17.4804 8.44341C17.4725 8.47524 17.4957 8.52828 17.4668 8.54432C17.4502 8.561 17.3859 8.55129 17.3885 8.46297C17.3885 8.43484 17.3678 8.40396 17.3553 8.38617C17.3428 8.37793 17.3359 8.37561 17.3132 8.37561C17.2855 8.37673 17.2847 8.38401 17.2695 8.40721C17.2631 8.43089 17.2544 8.4542 17.2544 8.48104C17.251 8.51248 17.2399 8.52313 17.2168 8.52773C17.1909 8.52773 17.197 8.53053 17.1761 8.5172C17.1637 8.50361 17.1475 8.49825 17.1475 8.47501C17.1475 8.45097 17.1427 8.41261 17.1354 8.39669C17.1245 8.38221 17.1056 8.37617 17.0857 8.37109C16.9774 8.37148 16.9711 8.49441 16.9773 8.54129C16.9692 8.55013 16.9637 8.77221 17.1113 8.83349C17.3096 8.92805 17.7821 8.87237 17.6671 8.56689C17.6671 8.53861 17.6594 8.44369 17.6566 8.41777C17.6363 8.37065 17.599 8.35285 17.5632 8.35905H17.5632ZM24.2134 8.63165C24.2078 8.63071 24.2021 8.63123 24.1968 8.63317C24.1968 8.63317 23.2781 9.28673 23.2554 9.30945C23.1643 9.39045 23.2099 9.67525 23.2554 9.64233C23.3212 9.66765 24.2461 9.04088 24.2285 8.96753C24.2688 8.96992 24.2881 8.64513 24.2134 8.63165ZM18.4313 8.72856C18.4688 8.72457 18.518 8.73728 18.5653 8.76468C18.6339 8.80436 18.6762 8.86428 18.6708 8.90781C18.6706 8.90901 18.671 8.91117 18.6708 8.91233C18.6705 8.91345 18.6681 8.91572 18.6678 8.91685C18.6674 8.91793 18.6667 8.92024 18.6663 8.92132C18.666 8.92204 18.6651 8.92365 18.6648 8.92437C18.6644 8.92505 18.6637 8.92669 18.6633 8.92737C18.6607 8.93122 18.6576 8.93477 18.6542 8.93793C18.6213 8.96873 18.5452 8.96433 18.4735 8.92285C18.4055 8.88353 18.3635 8.82316 18.368 8.77976C18.3682 8.77856 18.3693 8.77641 18.3695 8.77525C18.3707 8.76985 18.3728 8.76493 18.3755 8.76017C18.3765 8.75849 18.3774 8.75572 18.3786 8.75416C18.3788 8.75384 18.3798 8.75297 18.3801 8.75265C18.3821 8.75025 18.3852 8.74713 18.3876 8.74513C18.3985 8.73653 18.414 8.73041 18.4313 8.72856ZM10.3862 8.89424C9.91021 8.90293 9.21313 9.51817 9.19477 9.85973C9.69705 9.61853 10.1905 9.38637 10.701 9.13673C10.6186 9.01373 10.696 8.90293 10.3862 8.89424ZM11.9286 9.10812C11.9753 9.10864 12.0245 9.13172 12.0506 9.19701C12.0741 9.25689 12.0517 9.31953 12.0235 9.35061C12.0234 9.35089 12.0237 9.35189 12.0235 9.35213C12.0231 9.35285 12.0225 9.35453 12.022 9.35517C12.002 9.38089 11.9319 9.3702 11.8819 9.3702C11.8215 9.36753 11.7917 9.35761 11.7554 9.30845C11.7381 9.25381 11.7909 9.20008 11.8141 9.15932C11.8144 9.15892 11.8154 9.15821 11.8157 9.15785C11.8182 9.15405 11.8223 9.14945 11.8262 9.14577C11.8443 9.12925 11.8755 9.11377 11.909 9.10965C11.9156 9.10885 11.922 9.10804 11.9286 9.10812ZM24.0345 9.29757C23.9499 9.30797 23.8695 9.38801 23.9065 9.51596C23.8833 9.59113 24.0213 9.85393 24.0571 9.99345C24.0893 10.0927 24.0157 10.3736 24.0827 10.4031C24.1445 10.4362 24.3069 10.2364 24.3011 9.98593C24.319 9.85713 24.2552 9.38257 24.0933 9.30205C24.0742 9.29673 24.0542 9.2952 24.0345 9.29752V9.29757ZM13.753 9.76149C13.6782 9.76669 13.6115 9.80668 13.6415 9.91209C13.637 9.98856 13.8529 10.0816 13.8659 10.2585C13.8968 10.3315 13.8198 10.5652 13.8841 10.5869C13.943 10.6112 14.0249 10.4254 14.0557 10.2525C14.0729 10.1578 13.9817 9.8266 13.8268 9.76753C13.8026 9.76208 13.7777 9.76006 13.753 9.76153V9.76149ZM16.8303 10.1817C16.8359 10.1813 16.841 10.1817 16.8469 10.1817H16.8499C17.0417 10.2338 17.3244 10.2392 17.5699 10.2646C17.7698 10.2772 17.8686 10.4338 17.6813 10.4995C17.4966 10.5628 17.3191 10.6122 17.3183 10.8791C17.3426 11.0113 17.3375 11.0807 17.3168 11.1126C17.3152 11.115 17.3126 11.1182 17.3108 11.1201L17.3093 11.1216C17.309 11.1218 17.3081 11.1229 17.3078 11.1231L17.3063 11.1246L17.3048 11.1261L17.3018 11.1276C17.2989 11.1294 17.2959 11.1309 17.2927 11.1322C17.2901 11.133 17.2865 11.1332 17.2837 11.1336C17.2398 11.1401 17.176 11.0982 17.1285 11.0734C17.0147 10.9916 16.6951 10.7936 16.6496 10.3685C16.6431 10.2726 16.7149 10.1898 16.8303 10.1817L16.8303 10.1817ZM9.31397 10.5086C9.30197 10.509 9.27797 10.5448 9.24617 10.5854C8.96297 11.0366 8.93781 11.71 9.09405 11.9109C9.17709 12.0058 9.31397 12.0476 9.41485 12.0178C9.59281 11.9407 9.67097 11.5803 9.62877 11.4485C9.56941 11.3556 9.52237 11.3408 9.46309 11.4199C9.33789 11.6741 9.28577 11.5002 9.27481 11.3581C9.25561 11.0887 9.28169 10.8406 9.31097 10.6442C9.32653 10.5435 9.32593 10.5082 9.31397 10.5086V10.5086ZM18.9617 11.101C18.9388 11.0996 18.9159 11.1042 18.8954 11.1145C18.8909 11.1145 18.6927 11.2486 18.6288 11.342C18.5899 11.3716 18.5943 11.3974 18.6062 11.4489C18.6366 11.5187 18.6901 11.4968 18.7508 11.464C18.8314 11.453 18.8704 11.5058 18.8638 11.6025C18.8266 11.7232 18.8803 11.7682 18.8803 11.7757C18.8803 11.7833 18.9579 11.85 19.0491 11.7968C19.2413 11.7234 19.3612 11.652 19.6304 11.5935C19.7011 11.5921 19.6971 11.4029 19.5852 11.3962C19.4394 11.4035 19.3048 11.411 19.159 11.5257C19.0693 11.5464 19.0539 11.4918 19.0339 11.4429C19.0111 11.3214 19.0853 11.2357 19.0701 11.1446C19.0741 11.1486 19.0248 11.1043 18.9617 11.101H18.9617ZM25.139 11.3314C25.1032 11.3325 25.0655 11.3375 25.011 11.342C24.9519 11.3545 24.9313 11.3804 24.9206 11.4519C24.9248 11.5604 24.9912 11.5551 25.0592 11.598C25.0985 11.6481 25.1241 11.6934 25.0561 11.7757C24.9917 11.8348 24.9459 11.8673 24.8814 11.9264C24.851 11.9782 24.8321 12.058 24.9251 12.083C25.0969 12.1313 25.4945 11.873 25.4945 11.8676C25.5589 11.8193 25.5375 11.7275 25.5321 11.7275C25.4945 11.6846 25.4098 11.7104 25.3528 11.7034C25.3257 11.7034 25.2367 11.6902 25.2791 11.6116C25.3144 11.5626 25.3274 11.5333 25.3513 11.473C25.3781 11.414 25.3546 11.3742 25.258 11.3419C25.2088 11.333 25.1748 11.3303 25.139 11.3314ZM22.5584 16.5563C22.558 16.5565 22.5572 16.5575 22.5569 16.5578C22.2711 16.6311 22.2801 16.9277 22.4635 17.0578C19.4465 17.0578 14.8165 17.0066 13.8236 17.0066C13.2681 17.0066 11.5107 16.9404 11.4769 16.9404C11.8538 17.4916 12.3997 17.6039 13.1142 17.6152C14.4542 17.6152 20.6632 17.5986 22.4303 17.5986C22.3047 17.8216 22.4417 18.1806 22.5402 18.2463C22.5423 18.2476 22.5457 18.2498 22.5477 18.2508C22.5514 18.2527 22.5563 18.2544 22.5598 18.2554C22.561 18.2556 22.5632 18.2552 22.5643 18.2554C22.6813 18.283 22.7328 18.1982 22.7722 18.1364C22.9619 18.1531 24.0301 18.1685 24.1278 18.1348C24.1282 18.1347 24.129 18.1335 24.1293 18.1334C24.1954 18.2306 24.2611 18.3226 24.3869 18.3066C24.6071 18.2594 24.7805 18.2354 24.786 17.7884C24.786 17.7884 24.7635 17.0268 24.2633 17.0745C24.145 17.0924 23.813 17.1257 23.813 17.1257C23.4287 17.08 23.1469 17.0753 22.7149 17.0594C22.7548 17.0088 22.8252 16.8038 22.739 16.7296C22.7166 16.7108 22.683 16.7004 22.6366 16.704H22.6351C22.6345 16.7039 22.6327 16.704 22.6321 16.704C22.6317 16.7038 22.6309 16.7025 22.6306 16.7024C22.6294 16.702 22.6273 16.7016 22.6261 16.7009C22.6233 16.6987 22.6207 16.6962 22.6185 16.6934C22.618 16.6927 22.6161 16.6911 22.6155 16.6904C22.5937 16.6586 22.5818 16.5806 22.5673 16.5608L22.5658 16.5594L22.5643 16.5578C22.5634 16.5573 22.5623 16.5568 22.5613 16.5563H22.5583L22.5584 16.5563ZM22.7632 17.6453C22.7637 17.6451 22.7642 17.6456 22.7647 17.6453C23.2049 17.6668 23.6184 17.6494 24.0586 17.6709C24.1284 17.7302 24.0935 17.866 24.048 17.8908C24.0461 17.8918 24.0426 17.8933 24.0405 17.8938C24.0389 17.8942 24.0361 17.8938 24.0345 17.8938C24.0328 17.8938 24.0301 17.8942 24.0285 17.8938C23.8853 17.8902 23.8026 17.8869 23.6595 17.8833C23.6594 17.8762 23.6583 17.8691 23.6564 17.8622C23.6225 17.7617 23.3768 17.7684 23.319 17.8472C23.3182 17.8483 23.3167 17.8505 23.316 17.8517C23.3151 17.8532 23.3138 17.8561 23.313 17.8577C23.3121 17.8597 23.3107 17.8631 23.31 17.8652C23.3091 17.8682 23.3089 17.8726 23.3085 17.8758C23.3081 17.8794 23.3067 17.884 23.307 17.8878C23.1138 17.911 22.9399 17.8814 22.7467 17.8742C22.69 17.8037 22.6966 17.676 22.7632 17.6453H22.7632Z" fill="white"/>
</g>
</svg>
